%TF.GenerationSoftware,KiCad,Pcbnew,(6.0.2)*%
%TF.CreationDate,2023-02-28T22:47:18+08:00*%
%TF.ProjectId,OR_gate,4f525f67-6174-4652-9e6b-696361645f70,rev?*%
%TF.SameCoordinates,Original*%
%TF.FileFunction,Paste,Top*%
%TF.FilePolarity,Positive*%
%FSLAX46Y46*%
G04 Gerber Fmt 4.6, Leading zero omitted, Abs format (unit mm)*
G04 Created by KiCad (PCBNEW (6.0.2)) date 2023-02-28 22:47:18*
%MOMM*%
%LPD*%
G01*
G04 APERTURE LIST*
G04 Aperture macros list*
%AMRoundRect*
0 Rectangle with rounded corners*
0 $1 Rounding radius*
0 $2 $3 $4 $5 $6 $7 $8 $9 X,Y pos of 4 corners*
0 Add a 4 corners polygon primitive as box body*
4,1,4,$2,$3,$4,$5,$6,$7,$8,$9,$2,$3,0*
0 Add four circle primitives for the rounded corners*
1,1,$1+$1,$2,$3*
1,1,$1+$1,$4,$5*
1,1,$1+$1,$6,$7*
1,1,$1+$1,$8,$9*
0 Add four rect primitives between the rounded corners*
20,1,$1+$1,$2,$3,$4,$5,0*
20,1,$1+$1,$4,$5,$6,$7,0*
20,1,$1+$1,$6,$7,$8,$9,0*
20,1,$1+$1,$8,$9,$2,$3,0*%
G04 Aperture macros list end*
%ADD10RoundRect,0.150000X-0.150000X0.587500X-0.150000X-0.587500X0.150000X-0.587500X0.150000X0.587500X0*%
%ADD11RoundRect,0.243750X0.456250X-0.243750X0.456250X0.243750X-0.456250X0.243750X-0.456250X-0.243750X0*%
%ADD12RoundRect,0.243750X-0.456250X0.243750X-0.456250X-0.243750X0.456250X-0.243750X0.456250X0.243750X0*%
G04 APERTURE END LIST*
D10*
%TO.C,Q12*%
X73848000Y-53164500D03*
X71948000Y-53164500D03*
X72898000Y-55039500D03*
%TD*%
D11*
%TO.C,D7*%
X68580000Y-58849500D03*
X68580000Y-56974500D03*
%TD*%
%TO.C,D4*%
X76200000Y-58849500D03*
X76200000Y-56974500D03*
%TD*%
D12*
%TO.C,D6*%
X81280000Y-45290500D03*
X81280000Y-47165500D03*
%TD*%
D11*
%TO.C,D12*%
X73660000Y-58849500D03*
X73660000Y-56974500D03*
%TD*%
D12*
%TO.C,D11*%
X76200000Y-45290500D03*
X76200000Y-47165500D03*
%TD*%
%TO.C,D2*%
X78740000Y-45290500D03*
X78740000Y-47165500D03*
%TD*%
%TO.C,D9*%
X73660000Y-45290500D03*
X73660000Y-47165500D03*
%TD*%
D10*
%TO.C,Q7*%
X80960000Y-49354500D03*
X79060000Y-49354500D03*
X80010000Y-51229500D03*
%TD*%
D11*
%TO.C,D8*%
X78740000Y-58849500D03*
X78740000Y-56974500D03*
%TD*%
D10*
%TO.C,Q9*%
X70292000Y-49354500D03*
X68392000Y-49354500D03*
X69342000Y-51229500D03*
%TD*%
%TO.C,Q1*%
X66736000Y-46052500D03*
X64836000Y-46052500D03*
X65786000Y-47927500D03*
%TD*%
%TO.C,Q4*%
X77404000Y-53164500D03*
X75504000Y-53164500D03*
X76454000Y-55039500D03*
%TD*%
%TO.C,Q3*%
X77404000Y-49354500D03*
X75504000Y-49354500D03*
X76454000Y-51229500D03*
%TD*%
D12*
%TO.C,D5*%
X71120000Y-45290500D03*
X71120000Y-47165500D03*
%TD*%
D10*
%TO.C,Q2*%
X66736000Y-49862500D03*
X64836000Y-49862500D03*
X65786000Y-51737500D03*
%TD*%
%TO.C,Q10*%
X70292000Y-53164500D03*
X68392000Y-53164500D03*
X69342000Y-55039500D03*
%TD*%
D11*
%TO.C,D3*%
X66040000Y-58849500D03*
X66040000Y-56974500D03*
%TD*%
D10*
%TO.C,Q8*%
X80960000Y-53164500D03*
X79060000Y-53164500D03*
X80010000Y-55039500D03*
%TD*%
D11*
%TO.C,D10*%
X71120000Y-58849500D03*
X71120000Y-56974500D03*
%TD*%
D10*
%TO.C,Q11*%
X73848000Y-49354500D03*
X71948000Y-49354500D03*
X72898000Y-51229500D03*
%TD*%
D12*
%TO.C,D1*%
X68580000Y-45290500D03*
X68580000Y-47165500D03*
%TD*%
M02*
