%TF.GenerationSoftware,KiCad,Pcbnew,(6.0.2)*%
%TF.CreationDate,2023-02-28T22:47:18+08:00*%
%TF.ProjectId,OR_gate,4f525f67-6174-4652-9e6b-696361645f70,rev?*%
%TF.SameCoordinates,Original*%
%TF.FileFunction,Copper,L1,Top*%
%TF.FilePolarity,Positive*%
%FSLAX46Y46*%
G04 Gerber Fmt 4.6, Leading zero omitted, Abs format (unit mm)*
G04 Created by KiCad (PCBNEW (6.0.2)) date 2023-02-28 22:47:18*
%MOMM*%
%LPD*%
G01*
G04 APERTURE LIST*
G04 Aperture macros list*
%AMRoundRect*
0 Rectangle with rounded corners*
0 $1 Rounding radius*
0 $2 $3 $4 $5 $6 $7 $8 $9 X,Y pos of 4 corners*
0 Add a 4 corners polygon primitive as box body*
4,1,4,$2,$3,$4,$5,$6,$7,$8,$9,$2,$3,0*
0 Add four circle primitives for the rounded corners*
1,1,$1+$1,$2,$3*
1,1,$1+$1,$4,$5*
1,1,$1+$1,$6,$7*
1,1,$1+$1,$8,$9*
0 Add four rect primitives between the rounded corners*
20,1,$1+$1,$2,$3,$4,$5,0*
20,1,$1+$1,$4,$5,$6,$7,0*
20,1,$1+$1,$6,$7,$8,$9,0*
20,1,$1+$1,$8,$9,$2,$3,0*%
G04 Aperture macros list end*
%TA.AperFunction,SMDPad,CuDef*%
%ADD10RoundRect,0.150000X-0.150000X0.587500X-0.150000X-0.587500X0.150000X-0.587500X0.150000X0.587500X0*%
%TD*%
%TA.AperFunction,SMDPad,CuDef*%
%ADD11RoundRect,0.243750X0.456250X-0.243750X0.456250X0.243750X-0.456250X0.243750X-0.456250X-0.243750X0*%
%TD*%
%TA.AperFunction,SMDPad,CuDef*%
%ADD12RoundRect,0.243750X-0.456250X0.243750X-0.456250X-0.243750X0.456250X-0.243750X0.456250X0.243750X0*%
%TD*%
%TA.AperFunction,ComponentPad*%
%ADD13R,1.700000X1.700000*%
%TD*%
%TA.AperFunction,ComponentPad*%
%ADD14O,1.700000X1.700000*%
%TD*%
%TA.AperFunction,ViaPad*%
%ADD15C,0.800000*%
%TD*%
%TA.AperFunction,Conductor*%
%ADD16C,0.508000*%
%TD*%
%TA.AperFunction,Conductor*%
%ADD17C,0.762000*%
%TD*%
%TA.AperFunction,Conductor*%
%ADD18C,0.254000*%
%TD*%
G04 APERTURE END LIST*
D10*
%TO.P,Q12,1,G*%
%TO.N,In4*%
X73848000Y-53164500D03*
%TO.P,Q12,2,S*%
%TO.N,GND*%
X71948000Y-53164500D03*
%TO.P,Q12,3,D*%
%TO.N,Out4*%
X72898000Y-55039500D03*
%TD*%
D11*
%TO.P,D7,1,K*%
%TO.N,GND*%
X68580000Y-58849500D03*
%TO.P,D7,2,A*%
%TO.N,Net-(D7-Pad2)*%
X68580000Y-56974500D03*
%TD*%
%TO.P,D4,1,K*%
%TO.N,GND*%
X76200000Y-58849500D03*
%TO.P,D4,2,A*%
%TO.N,Net-(D4-Pad2)*%
X76200000Y-56974500D03*
%TD*%
D12*
%TO.P,D6,1,K*%
%TO.N,GND*%
X81280000Y-45290500D03*
%TO.P,D6,2,A*%
%TO.N,Net-(D6-Pad2)*%
X81280000Y-47165500D03*
%TD*%
D11*
%TO.P,D12,1,K*%
%TO.N,GND*%
X73660000Y-58849500D03*
%TO.P,D12,2,A*%
%TO.N,Net-(D12-Pad2)*%
X73660000Y-56974500D03*
%TD*%
D12*
%TO.P,D11,1,K*%
%TO.N,GND*%
X76200000Y-45290500D03*
%TO.P,D11,2,A*%
%TO.N,Net-(D11-Pad2)*%
X76200000Y-47165500D03*
%TD*%
%TO.P,D2,1,K*%
%TO.N,GND*%
X78740000Y-45290500D03*
%TO.P,D2,2,A*%
%TO.N,Net-(D2-Pad2)*%
X78740000Y-47165500D03*
%TD*%
%TO.P,D9,1,K*%
%TO.N,GND*%
X73660000Y-45290500D03*
%TO.P,D9,2,A*%
%TO.N,Net-(D9-Pad2)*%
X73660000Y-47165500D03*
%TD*%
D10*
%TO.P,Q7,1,G*%
%TO.N,In6*%
X80960000Y-49354500D03*
%TO.P,Q7,2,S*%
%TO.N,+5V*%
X79060000Y-49354500D03*
%TO.P,Q7,3,D*%
%TO.N,Out6*%
X80010000Y-51229500D03*
%TD*%
D11*
%TO.P,D8,1,K*%
%TO.N,GND*%
X78740000Y-58849500D03*
%TO.P,D8,2,A*%
%TO.N,Net-(D8-Pad2)*%
X78740000Y-56974500D03*
%TD*%
D10*
%TO.P,Q9,1,G*%
%TO.N,In3*%
X70292000Y-49354500D03*
%TO.P,Q9,2,S*%
%TO.N,+5V*%
X68392000Y-49354500D03*
%TO.P,Q9,3,D*%
%TO.N,Out3*%
X69342000Y-51229500D03*
%TD*%
%TO.P,Q1,1,G*%
%TO.N,In1*%
X66736000Y-46052500D03*
%TO.P,Q1,2,S*%
%TO.N,+5V*%
X64836000Y-46052500D03*
%TO.P,Q1,3,D*%
%TO.N,Out1*%
X65786000Y-47927500D03*
%TD*%
D13*
%TO.P,J1,1,Pin_1*%
%TO.N,In6*%
X81280000Y-43180000D03*
D14*
%TO.P,J1,2,Pin_2*%
%TO.N,In5*%
X78740000Y-43180000D03*
%TO.P,J1,3,Pin_3*%
%TO.N,In4*%
X76200000Y-43180000D03*
%TO.P,J1,4,Pin_4*%
%TO.N,In3*%
X73660000Y-43180000D03*
%TO.P,J1,5,Pin_5*%
%TO.N,In2*%
X71120000Y-43180000D03*
%TO.P,J1,6,Pin_6*%
%TO.N,In1*%
X68580000Y-43180000D03*
%TO.P,J1,7,Pin_7*%
%TO.N,+5V*%
X66040000Y-43180000D03*
%TD*%
D13*
%TO.P,J2,1,Pin_1*%
%TO.N,Out1*%
X66040000Y-60960000D03*
D14*
%TO.P,J2,2,Pin_2*%
%TO.N,Out2*%
X68580000Y-60960000D03*
%TO.P,J2,3,Pin_3*%
%TO.N,Out3*%
X71120000Y-60960000D03*
%TO.P,J2,4,Pin_4*%
%TO.N,Out4*%
X73660000Y-60960000D03*
%TO.P,J2,5,Pin_5*%
%TO.N,Out5*%
X76200000Y-60960000D03*
%TO.P,J2,6,Pin_6*%
%TO.N,Out6*%
X78740000Y-60960000D03*
%TO.P,J2,7,Pin_7*%
%TO.N,GND*%
X81280000Y-60960000D03*
%TD*%
D10*
%TO.P,Q4,1,G*%
%TO.N,In5*%
X77404000Y-53164500D03*
%TO.P,Q4,2,S*%
%TO.N,GND*%
X75504000Y-53164500D03*
%TO.P,Q4,3,D*%
%TO.N,Out5*%
X76454000Y-55039500D03*
%TD*%
%TO.P,Q3,1,G*%
%TO.N,In5*%
X77404000Y-49354500D03*
%TO.P,Q3,2,S*%
%TO.N,+5V*%
X75504000Y-49354500D03*
%TO.P,Q3,3,D*%
%TO.N,Out5*%
X76454000Y-51229500D03*
%TD*%
D12*
%TO.P,D5,1,K*%
%TO.N,GND*%
X71120000Y-45290500D03*
%TO.P,D5,2,A*%
%TO.N,Net-(D5-Pad2)*%
X71120000Y-47165500D03*
%TD*%
D10*
%TO.P,Q2,1,G*%
%TO.N,In1*%
X66736000Y-49862500D03*
%TO.P,Q2,2,S*%
%TO.N,GND*%
X64836000Y-49862500D03*
%TO.P,Q2,3,D*%
%TO.N,Out1*%
X65786000Y-51737500D03*
%TD*%
%TO.P,Q10,1,G*%
%TO.N,In3*%
X70292000Y-53164500D03*
%TO.P,Q10,2,S*%
%TO.N,GND*%
X68392000Y-53164500D03*
%TO.P,Q10,3,D*%
%TO.N,Out3*%
X69342000Y-55039500D03*
%TD*%
D11*
%TO.P,D3,1,K*%
%TO.N,GND*%
X66040000Y-58849500D03*
%TO.P,D3,2,A*%
%TO.N,Net-(D3-Pad2)*%
X66040000Y-56974500D03*
%TD*%
D10*
%TO.P,Q8,1,G*%
%TO.N,In6*%
X80960000Y-53164500D03*
%TO.P,Q8,2,S*%
%TO.N,GND*%
X79060000Y-53164500D03*
%TO.P,Q8,3,D*%
%TO.N,Out6*%
X80010000Y-55039500D03*
%TD*%
D11*
%TO.P,D10,1,K*%
%TO.N,GND*%
X71120000Y-58849500D03*
%TO.P,D10,2,A*%
%TO.N,Net-(D10-Pad2)*%
X71120000Y-56974500D03*
%TD*%
D10*
%TO.P,Q11,1,G*%
%TO.N,In4*%
X73848000Y-49354500D03*
%TO.P,Q11,2,S*%
%TO.N,+5V*%
X71948000Y-49354500D03*
%TO.P,Q11,3,D*%
%TO.N,Out4*%
X72898000Y-51229500D03*
%TD*%
D12*
%TO.P,D1,1,K*%
%TO.N,GND*%
X68580000Y-45290500D03*
%TO.P,D1,2,A*%
%TO.N,Net-(D1-Pad2)*%
X68580000Y-47165500D03*
%TD*%
D15*
%TO.N,GND*%
X66802000Y-51816000D03*
X75438000Y-53340000D03*
X68319750Y-53092250D03*
X78994000Y-53340000D03*
X71882000Y-53340000D03*
%TO.N,Net-(D1-Pad2)*%
X68580000Y-47244000D03*
%TO.N,Net-(D2-Pad2)*%
X78740000Y-47244000D03*
%TO.N,Net-(D3-Pad2)*%
X66040000Y-56896000D03*
%TO.N,Net-(D4-Pad2)*%
X76200000Y-56896000D03*
%TO.N,Net-(D5-Pad2)*%
X71120000Y-47244000D03*
%TO.N,Net-(D6-Pad2)*%
X81280000Y-47244000D03*
%TO.N,Net-(D7-Pad2)*%
X68580000Y-56896000D03*
%TO.N,Net-(D8-Pad2)*%
X78740000Y-56896000D03*
%TO.N,Net-(D9-Pad2)*%
X73660000Y-47244000D03*
%TO.N,Net-(D10-Pad2)*%
X71120000Y-56896000D03*
%TO.N,Net-(D11-Pad2)*%
X76200000Y-47244000D03*
%TO.N,Net-(D12-Pad2)*%
X73660000Y-56896000D03*
%TO.N,In6*%
X80010000Y-48260000D03*
%TO.N,In5*%
X77470000Y-46482000D03*
%TO.N,In4*%
X74930000Y-46482000D03*
%TO.N,In3*%
X72390000Y-46482000D03*
%TO.N,In1*%
X66736000Y-46052500D03*
%TO.N,+5V*%
X78994000Y-49784000D03*
X75438000Y-49784000D03*
X68326000Y-49784000D03*
X67683885Y-48128687D03*
X71882000Y-49784000D03*
%TO.N,Out3*%
X69342000Y-55039500D03*
%TO.N,Out4*%
X72390000Y-57658000D03*
%TO.N,Out5*%
X74930000Y-57658000D03*
%TO.N,Out6*%
X80267314Y-57872419D03*
%TD*%
D16*
%TO.N,GND*%
X64262000Y-61214000D02*
X64262000Y-61789022D01*
D17*
X68580000Y-45290500D02*
X81280000Y-45290500D01*
D16*
X64178960Y-50519540D02*
X64178960Y-61130960D01*
D18*
X68392000Y-53164500D02*
X67231500Y-54325000D01*
D16*
X64736489Y-62263511D02*
X79976489Y-62263511D01*
D17*
X81280000Y-59944000D02*
X81280000Y-60960000D01*
X82560520Y-45984520D02*
X82560520Y-59679480D01*
D16*
X64262000Y-61789022D02*
X64736489Y-62263511D01*
D17*
X78740000Y-58849500D02*
X80185500Y-58849500D01*
X82560520Y-59679480D02*
X81280000Y-60960000D01*
X81280000Y-45290500D02*
X81866500Y-45290500D01*
X80185500Y-58849500D02*
X81280000Y-59944000D01*
D18*
X67231500Y-54325000D02*
X67231500Y-58849500D01*
X66802000Y-51816000D02*
X67043500Y-51816000D01*
X68319750Y-53092250D02*
X68392000Y-53164500D01*
D17*
X81866500Y-45290500D02*
X82560520Y-45984520D01*
D16*
X79976489Y-62263511D02*
X81280000Y-60960000D01*
D17*
X66040000Y-58849500D02*
X67231500Y-58849500D01*
D16*
X64836000Y-49862500D02*
X64178960Y-50519540D01*
D17*
X67231500Y-58849500D02*
X78740000Y-58849500D01*
D16*
X64178960Y-61130960D02*
X64262000Y-61214000D01*
D18*
X67043500Y-51816000D02*
X68319750Y-53092250D01*
D16*
%TO.N,In6*%
X80960000Y-49210000D02*
X80010000Y-48260000D01*
X80960000Y-49354500D02*
X80960000Y-49210000D01*
X80960000Y-53164500D02*
X80960000Y-49354500D01*
%TO.N,In5*%
X77404000Y-49354500D02*
X77404000Y-46548000D01*
X77404000Y-53164500D02*
X77404000Y-49354500D01*
X77404000Y-46548000D02*
X77470000Y-46482000D01*
%TO.N,In4*%
X73848000Y-49354500D02*
X73848000Y-53164500D01*
X74930000Y-48272500D02*
X74930000Y-46482000D01*
X73848000Y-49354500D02*
X74930000Y-48272500D01*
D18*
%TO.N,In3*%
X72390000Y-47498000D02*
X71882000Y-48006000D01*
X70292000Y-48834000D02*
X70292000Y-49354500D01*
X72390000Y-46482000D02*
X72390000Y-47498000D01*
X70292000Y-49354500D02*
X70292000Y-53164500D01*
X71120000Y-48006000D02*
X70292000Y-48834000D01*
X71882000Y-48006000D02*
X71120000Y-48006000D01*
D16*
%TO.N,In1*%
X66736000Y-49862500D02*
X66736000Y-46052500D01*
%TO.N,+5V*%
X64836000Y-46052500D02*
X64836000Y-44384000D01*
X68326000Y-49784000D02*
X68326000Y-49420500D01*
X71882000Y-49420500D02*
X71948000Y-49354500D01*
X67683885Y-48128687D02*
X67940687Y-48128687D01*
X75438000Y-49784000D02*
X75438000Y-49420500D01*
X64836000Y-44384000D02*
X66040000Y-43180000D01*
X68392000Y-48580000D02*
X68392000Y-49354500D01*
X78994000Y-49784000D02*
X78994000Y-49420500D01*
X71882000Y-49784000D02*
X71882000Y-49420500D01*
X75438000Y-49420500D02*
X75504000Y-49354500D01*
X67940687Y-48128687D02*
X68392000Y-48580000D01*
X68326000Y-49420500D02*
X68392000Y-49354500D01*
X78994000Y-49420500D02*
X79060000Y-49354500D01*
%TO.N,Out1*%
X65786000Y-47927500D02*
X65786000Y-51737500D01*
X64886480Y-52637020D02*
X64886480Y-59806480D01*
X64886480Y-59806480D02*
X66040000Y-60960000D01*
X65786000Y-51737500D02*
X64886480Y-52637020D01*
D18*
%TO.N,Out3*%
X69342000Y-51229500D02*
X69342000Y-55039500D01*
D16*
%TO.N,Out4*%
X72390000Y-57150000D02*
X72390000Y-57658000D01*
X72390000Y-55547500D02*
X72390000Y-57150000D01*
X72898000Y-55039500D02*
X72390000Y-55547500D01*
X72898000Y-51229500D02*
X72898000Y-55039500D01*
%TO.N,Out5*%
X76448912Y-55039500D02*
X74930000Y-56558412D01*
X74930000Y-56558412D02*
X74930000Y-56896000D01*
X76454000Y-55039500D02*
X76448912Y-55039500D01*
X76454000Y-51229500D02*
X76454000Y-55039500D01*
X74930000Y-56896000D02*
X74930000Y-57658000D01*
%TO.N,Out6*%
X80010000Y-51229500D02*
X80010000Y-55039500D01*
X80010000Y-57615105D02*
X80267314Y-57872419D01*
X80010000Y-55039500D02*
X80010000Y-57615105D01*
%TD*%
M02*
